<?xml version="1.0" encoding="utf-8"?>
<!-- Generator: Adobe Illustrator 16.0.3, SVG Export Plug-In . SVG Version: 6.00 Build 0)  -->
<!DOCTYPE svg PUBLIC "-//W3C//DTD SVG 1.1//EN" "http://www.w3.org/Graphics/SVG/1.1/DTD/svg11.dtd">
<svg version="1.1" id="Layer_1" xmlns="http://www.w3.org/2000/svg" xmlns:xlink="http://www.w3.org/1999/xlink" x="0px" y="0px"
	 width="222.355px" height="125.871px" viewBox="0 0 222.355 125.871" enable-background="new 0 0 222.355 125.871"
	 xml:space="preserve">
<g>
	<path fill="#FFFFFF" d="M56.074,123.736h-1.15L0,0h2.013L55.5,121.043L110.425,0h1.149l54.925,121.043L219.986,0H222
		l-54.925,123.736h-1.15L110.999,2.694L56.074,123.736z"/>
</g>
<g>
	<path fill="#FFFFFF" d="M85.522,104.296v2.534c-1.203,0.653-2.822,1.175-4.912,1.175c-2.586,0-6.059-1.045-6.059-6.583
		c0-3.892,1.566-6.896,5.825-6.896c4.074,0,5.825,3.056,5.825,6.321c0,0.575,0,1.098-0.052,1.62h-8.384
		c0.182,2.507,1.802,2.848,3.315,2.848C82.935,105.315,84.423,104.819,85.522,104.296z M77.764,100.3h5.25
		c-0.157-1.646-0.966-3.212-2.638-3.212C78.835,97.087,77.945,97.975,77.764,100.3z"/>
	<path fill="#FFFFFF" d="M99.652,100.091v3.526c0,2.116-1.436,4.388-5.485,4.388c-4.127,0-5.59-2.299-5.59-4.468
		c0-0.966,0.393-4.1,5.616-4.1c0.811,0,1.593,0.078,2.299,0.184c0-1.412-0.731-2.456-2.769-2.456c-1.568,0-2.847,0.26-3.814,0.653
		v-2.534c1.099-0.443,2.43-0.731,3.997-0.731C97.615,94.554,99.652,96.513,99.652,100.091z M96.518,101.606
		c-0.548-0.077-1.175-0.156-1.879-0.156c-2.118,0-2.953,0.626-2.953,1.697c0,1.359,0.81,2.09,2.456,2.09
		c1.75,0,2.376-0.784,2.376-1.986V101.606z"/>
	<path fill="#FFFFFF" d="M106.941,97.454v6.424c0,1.15,0.444,1.438,1.593,1.438c0.601,0,1.072-0.106,1.489-0.288v2.585
		c-0.626,0.261-1.306,0.393-2.063,0.393c-2.587,0-4.153-1.619-4.153-4.31v-6.243h-2.193v-2.69h2.193v-3.868h3.135v3.868h3.082v2.69
		H106.941z"/>
	<path fill="#FFFFFF" d="M124.703,99.959v7.837h-3.109V99.7c0-1.15-0.259-2.378-3.185-2.378c-0.863,0-1.568,0.156-2.09,0.391v10.083
		h-3.134V89.799h3.134v5.199c0.731-0.288,1.593-0.444,2.612-0.444C122.561,94.554,124.703,96.564,124.703,99.959z"/>
	<path fill="#FFFFFF" d="M138.678,104.296v2.534c-1.203,0.653-2.822,1.175-4.912,1.175c-2.586,0-6.059-1.045-6.059-6.583
		c0-3.892,1.566-6.896,5.826-6.896c4.074,0,5.824,3.056,5.824,6.321c0,0.575,0,1.098-0.053,1.62h-8.385
		c0.182,2.507,1.803,2.848,3.316,2.848C136.091,105.315,137.58,104.819,138.678,104.296z M130.919,100.3h5.25
		c-0.156-1.646-0.966-3.212-2.637-3.212C131.991,97.087,131.102,97.975,130.919,100.3z"/>
	<path fill="#FFFFFF" d="M148.919,94.554v2.716c-1.75,0.027-2.927,0.313-3.371,0.443v10.083h-3.134V95.938
		C142.415,95.938,145.183,94.632,148.919,94.554z"/>
</g>
</svg>
